<svg width="33" height="33" viewBox="0 0 33 33" fill="none" xmlns="http://www.w3.org/2000/svg">
<path d="M27.0721 11.572C27.089 11.8053 27.089 12.0387 27.089 12.272C27.089 19.3887 21.5899 27.5887 11.539 27.5887C8.44257 27.5887 5.56609 26.7054 3.14645 25.172C3.5864 25.222 4.00937 25.2387 4.46625 25.2387C7.02121 25.2387 9.3732 24.3887 11.2514 22.9387C8.84867 22.8887 6.83512 21.3387 6.14136 19.2054C6.4798 19.2554 6.81819 19.2887 7.17355 19.2887C7.66423 19.2887 8.15496 19.222 8.61179 19.1054C6.10756 18.6054 4.22932 16.4387 4.22932 13.822V13.7554C4.95688 14.1554 5.80297 14.4054 6.69969 14.4387C5.22761 13.472 4.26317 11.822 4.26317 9.95533C4.26317 8.95536 4.53385 8.03869 5.00765 7.23868C7.69804 10.5053 11.7421 12.6386 16.2767 12.872C16.1922 12.472 16.1414 12.0554 16.1414 11.6387C16.1414 8.67201 18.5779 6.25537 21.6067 6.25537C23.1803 6.25537 24.6017 6.90537 25.5999 7.95537C26.8351 7.72205 28.0195 7.27202 29.0686 6.65537C28.6625 7.9054 27.7995 8.9554 26.6659 9.62202C27.7658 9.50541 28.8318 9.20534 29.8131 8.78872C29.0687 9.85534 28.1381 10.8053 27.0721 11.572Z" fill="black"/>
</svg>
