<svg width="53" height="31" viewBox="0 0 53 31" fill="none" xmlns="http://www.w3.org/2000/svg">
<path fill-rule="evenodd" clip-rule="evenodd" d="M1.18876 2.12159C0.728147 1.6034 1.09601 0.784232 1.78933 0.784232H45.9583C49.8275 0.784232 52.9642 3.92085 52.9642 7.79008V23.4832C52.9642 27.3523 49.8275 30.489 45.9583 30.489H24.2626C23.268 30.489 22.3209 30.0637 21.6601 29.3204L19.404 26.7822C18.9434 26.264 19.3112 25.4448 20.0045 25.4448H45.9583C47.0417 25.4448 47.92 24.5666 47.92 23.4832V7.79008C47.92 6.70671 47.0417 5.82845 45.9583 5.82845H6.04737C5.05279 5.82845 4.1057 5.40312 3.44493 4.65977L1.18876 2.12159Z" fill="#02A99B"/>
<path fill-rule="evenodd" clip-rule="evenodd" d="M20.3251 0.583349L33.2427 14.6262C33.5735 14.986 34.1405 14.9886 34.4748 14.6318L45.842 2.50066L49.5227 5.94965L38.1558 18.0808C35.8159 20.5779 31.847 20.5597 29.5302 18.0411L16.6126 3.99831L20.3251 0.583349Z" fill="#02A99B"/>
<path fill-rule="evenodd" clip-rule="evenodd" d="M11.0092 15.0149C10.5454 14.4974 10.9126 13.675 11.6075 13.675H19.6784C20.418 13.675 21.0176 14.2746 21.0176 15.0142V17.38C21.0176 18.1196 20.418 18.7192 19.6784 18.7192H15.2865C14.6775 18.7192 14.0973 18.4601 13.6909 18.0067L11.0092 15.0149Z" fill="#02A99B"/>
</svg>
