<svg width="34" height="35" viewBox="0 0 34 35" fill="none" xmlns="http://www.w3.org/2000/svg">
<path d="M10.3146 18.2636C11.6411 18.2636 12.6757 18.7953 13.4185 19.8586C14.2144 20.866 14.6124 22.1253 14.6124 23.6364C14.6124 25.2595 14.0818 26.6027 13.0206 27.666C11.9594 28.6734 10.633 29.1772 9.0412 29.1772C7.2372 29.1772 5.75157 28.4776 4.58427 27.0784C3.41697 25.6793 2.83334 23.8603 2.83334 21.6217C2.83334 18.4874 3.7884 15.6331 5.6985 13.0586C7.60862 10.4842 10.4473 8.30145 14.2144 6.5105V8.60926C11.986 9.67264 10.0758 11.0718 8.48408 12.8068C6.89233 14.4858 6.09644 16.1648 6.09644 17.8438C6.09644 18.9631 6.38826 19.5229 6.97192 19.5229C7.07802 19.5229 7.21068 19.4948 7.36986 19.4389C7.52903 19.3269 7.68821 19.2431 7.84739 19.187C8.64326 18.5714 9.46567 18.2636 10.3146 18.2636ZM26.8689 18.2636C28.1954 18.2636 29.2301 18.7953 29.9728 19.8586C30.7687 20.866 31.1667 22.1253 31.1667 23.6364C31.1667 25.2595 30.6361 26.6027 29.5749 27.666C28.5137 28.6734 27.1873 29.1772 25.5955 29.1772C23.7915 29.1772 22.3058 28.4776 21.1385 27.0784C19.9713 25.6793 19.3877 23.8603 19.3877 21.6217C19.3877 18.4874 20.3428 15.6331 22.2529 13.0586C24.163 10.4842 27.0015 8.30145 30.7687 6.5105V8.60926C28.5403 9.67264 26.6302 11.0718 25.0385 12.8068C23.4467 14.4858 22.6508 16.1648 22.6508 17.8438C22.6508 18.9631 22.9426 19.5229 23.5262 19.5229C23.6323 19.5229 23.765 19.4948 23.9241 19.4389C24.0833 19.3269 24.2426 19.2431 24.4017 19.187C25.1975 18.5714 26.0199 18.2636 26.8689 18.2636Z" fill="#FF6D2C"/>
</svg>
