
  <svg width="67" height="20" viewBox="10 120 767 270" fill="none" xmlns="http://www.w3.org/2000/svg">
<path d="M5.28516 138.703C4.11068 138.917 3.17643 138.837 2.48242 138.463C1.8418 138.036 1.38802 137.529 1.12109 136.941C0.854167 136.301 0.720703 135.687 0.720703 135.1C0.774089 134.459 0.907552 134.059 1.12109 133.898C1.28125 133.845 1.62826 133.632 2.16211 133.258C2.74935 132.884 3.09635 132.644 3.20312 132.537C3.25651 132.537 3.3099 132.51 3.36328 132.457C3.47005 132.35 3.55013 132.27 3.60352 132.217V130.775C3.60352 127.786 3.41667 124.85 3.04297 121.967C2.72266 119.031 2.5625 116.094 2.5625 113.158C2.5625 111.236 2.58919 109.234 2.64258 107.152C2.74935 105.07 3.09635 103.148 3.68359 101.387C4.32422 99.625 5.31185 98.1836 6.64648 97.0625C7.98112 95.9414 9.90299 95.3809 12.4121 95.3809C12.8392 95.3809 13.3464 95.3809 13.9336 95.3809C14.5208 95.3809 15.0547 95.4609 15.5352 95.6211C16.069 95.7279 16.5228 95.9681 16.8965 96.3418C17.2702 96.6621 17.457 97.1426 17.457 97.7832C17.457 98.7441 17.2168 99.3848 16.7363 99.7051C16.3092 99.972 15.7487 100.159 15.0547 100.266C14.3607 100.319 13.64 100.426 12.8926 100.586C12.1452 100.693 11.5046 101.093 10.9707 101.787C10.8639 101.894 10.7305 102.188 10.5703 102.668C10.4102 103.095 10.3301 103.389 10.3301 103.549C10.2233 103.923 10.1165 104.43 10.0098 105.07C9.90299 105.711 9.79622 106.352 9.68945 106.992C9.63607 107.633 9.55599 108.22 9.44922 108.754C9.39583 109.234 9.36914 109.501 9.36914 109.555C9.36914 109.608 9.36914 109.822 9.36914 110.195C9.36914 110.516 9.34245 110.916 9.28906 111.396C9.28906 111.877 9.28906 112.384 9.28906 112.918C9.28906 113.398 9.28906 113.799 9.28906 114.119C9.28906 115.24 9.28906 116.281 9.28906 117.242C9.28906 118.203 9.31576 119.164 9.36914 120.125C9.42253 121.033 9.5026 121.967 9.60938 122.928C9.71615 123.889 9.84961 124.956 10.0098 126.131H10.6504L21.4609 119.725C22.2083 119.564 22.8757 119.298 23.4629 118.924C24.0501 118.55 24.7174 118.363 25.4648 118.363C26.2122 118.363 26.9863 118.55 27.7871 118.924C28.5879 119.298 28.9883 119.885 28.9883 120.686C28.9883 121.273 28.8548 121.7 28.5879 121.967C28.321 122.234 28.1074 122.607 27.9473 123.088C27.7337 123.141 27.3333 123.301 26.7461 123.568C26.1589 123.835 25.7585 124.022 25.5449 124.129C25.1178 124.396 24.4238 124.823 23.4629 125.41C22.5553 125.944 21.5944 126.531 20.5801 127.172C19.5658 127.759 18.6315 128.32 17.7773 128.854C16.9232 129.387 16.3626 129.734 16.0957 129.895C15.722 130.161 15.2682 130.482 14.7344 130.855C14.2005 131.229 13.6667 131.63 13.1328 132.057C12.6523 132.43 12.2253 132.777 11.8516 133.098C11.4779 133.365 11.291 133.498 11.291 133.498V134.299L13.373 141.105C13.3197 141.266 13.293 141.452 13.293 141.666C13.3464 141.826 13.4798 141.96 13.6934 142.066L17.457 153.518C17.724 154.479 17.5104 155.279 16.8164 155.92C16.1758 156.561 15.4284 156.881 14.5742 156.881C13.6133 156.881 12.679 156.614 11.7715 156.08C10.8639 155.6 10.2767 154.852 10.0098 153.838L5.60547 139.344L5.28516 138.703ZM43.9629 133.658C43.4824 134.512 42.9219 135.553 42.2812 136.781C41.694 137.956 41.0534 139.237 40.3594 140.625C39.6654 141.96 38.8913 143.321 38.0371 144.709C37.2363 146.044 36.3822 147.271 35.4746 148.393C34.6204 149.514 33.7129 150.475 32.752 151.275C31.791 152.023 30.8034 152.477 29.7891 152.637C29.362 152.637 28.8815 152.61 28.3477 152.557C27.8138 152.45 27.2799 152.316 26.7461 152.156C26.2122 151.943 25.7585 151.676 25.3848 151.355C25.0645 150.982 24.9043 150.501 24.9043 149.914C24.9577 144.469 25.3581 139.531 26.1055 135.1C26.8529 130.615 28.0273 126.691 29.6289 123.328C31.2305 119.911 33.2858 117.082 35.7949 114.84C38.304 112.598 41.347 110.996 44.9238 110.035C45.0306 110.035 45.2174 110.035 45.4844 110.035C45.8047 109.982 46.0182 109.955 46.125 109.955C47.7266 109.902 48.8743 110.649 49.5684 112.197C50.3158 113.692 50.8496 116.094 51.1699 119.404C51.5436 122.661 51.7839 126.878 51.8906 132.057C52.0508 137.182 52.3444 143.348 52.7715 150.555C52.9316 151.142 53.0117 151.649 53.0117 152.076C53.0651 152.503 53.0918 153.01 53.0918 153.598C53.0918 154.398 52.8516 155.012 52.3711 155.439C51.8906 155.813 51.2767 156 50.5293 156C48.9811 156 47.8867 155.573 47.2461 154.719C46.6055 153.865 46.1784 152.717 45.9648 151.275C45.9648 151.222 45.9115 150.795 45.8047 149.994C45.7513 149.193 45.6445 148.286 45.4844 147.271C45.3776 146.204 45.2708 145.136 45.1641 144.068C45.0573 143.001 44.9772 142.12 44.9238 141.426V141.105C44.8171 140.572 44.737 139.904 44.6836 139.104C44.6836 138.303 44.6302 137.529 44.5234 136.781C44.4167 135.874 44.3366 134.966 44.2832 134.059L43.9629 133.658ZM42.2012 117.803C40.7598 118.87 39.3451 120.312 37.957 122.127C36.569 123.942 35.5814 125.704 34.9941 127.412C34.7272 128.213 34.4336 129.307 34.1133 130.695C33.793 132.083 33.4993 133.471 33.2324 134.859C33.0189 136.194 32.832 137.449 32.6719 138.623C32.5117 139.744 32.4316 140.465 32.4316 140.785C32.485 140.785 32.5384 140.732 32.5918 140.625C32.6986 140.518 32.7786 140.438 32.832 140.385C36.1419 137.182 38.4642 133.738 39.7988 130.055C41.1868 126.318 41.9876 122.234 42.2012 117.803ZM65.584 144.549L56.7754 123.168C56.722 123.115 56.6953 123.061 56.6953 123.008V122.688C56.6953 122.207 56.8288 121.807 57.0957 121.486C57.416 121.113 57.7897 120.792 58.2168 120.525C58.3236 120.525 58.5371 120.525 58.8574 120.525C59.1777 120.472 59.3913 120.445 59.498 120.445C60.5124 120.445 61.2331 120.605 61.6602 120.926C62.1406 121.246 62.7546 121.673 63.502 122.207C63.7155 123.008 63.9824 123.835 64.3027 124.689C64.6764 125.544 65.1035 126.638 65.584 127.973C66.1178 129.254 66.7852 130.882 67.5859 132.857C68.3867 134.833 69.401 137.342 70.6289 140.385L71.0293 140.785C71.1895 140.518 71.3229 140.171 71.4297 139.744C71.5898 139.317 71.8301 138.57 72.1504 137.502C72.5241 136.434 73.0312 134.886 73.6719 132.857C74.3125 130.829 75.2201 128.079 76.3945 124.609C76.8216 123.915 77.1152 123.115 77.2754 122.207C77.4355 121.299 77.6224 120.445 77.8359 119.645C78.0495 118.844 78.3698 118.176 78.7969 117.643C79.2773 117.109 79.998 116.842 80.959 116.842C81.8665 116.842 82.7474 117.215 83.6016 117.963C84.4557 118.657 84.8828 119.511 84.8828 120.525C84.8828 121.006 84.7227 121.54 84.4023 122.127C84.082 122.661 83.7617 123.115 83.4414 123.488L73.6719 156H73.1914C72.9779 156 72.6576 155.973 72.2305 155.92C71.8568 155.867 71.4564 155.786 71.0293 155.68C70.6022 155.52 70.2285 155.359 69.9082 155.199C69.5879 155.039 69.401 154.852 69.3477 154.639L65.584 144.869V144.549ZM88.5664 143.748L91.5293 123.168C91.6361 122.474 91.9297 121.967 92.4102 121.646C92.944 121.326 93.5312 121.166 94.1719 121.166C95.3464 121.166 96.2806 121.513 96.9746 122.207C97.6686 122.848 98.2559 123.648 98.7363 124.609H98.8164C99.457 124.609 100.018 124.503 100.498 124.289C101.032 124.022 101.673 123.889 102.42 123.889C104.128 123.889 105.57 124.423 106.744 125.49C107.972 126.558 108.96 127.866 109.707 129.414C110.454 130.909 110.988 132.537 111.309 134.299C111.682 136.061 111.869 137.609 111.869 138.943C111.869 140.545 111.442 142.333 110.588 144.309C109.787 146.284 108.693 148.152 107.305 149.914C105.97 151.676 104.449 153.144 102.74 154.318C101.032 155.493 99.2969 156.08 97.5352 156.08C95.9336 156.08 94.5456 155.706 93.3711 154.959C92.25 154.212 91.3158 153.277 90.5684 152.156C89.8743 150.982 89.3672 149.674 89.0469 148.232C88.7266 146.791 88.5664 145.376 88.5664 143.988V143.748ZM95.293 144.229C95.3997 144.762 95.5065 145.376 95.6133 146.07C95.7201 146.764 95.8802 147.405 96.0938 147.992C96.3073 148.526 96.6009 148.953 96.9746 149.273C97.4017 149.54 97.9889 149.54 98.7363 149.273C99.4303 148.633 100.178 147.912 100.979 147.111C101.779 146.311 102.527 145.456 103.221 144.549C103.968 143.641 104.582 142.68 105.062 141.666C105.543 140.652 105.783 139.584 105.783 138.463C105.997 136.648 105.863 134.993 105.383 133.498C104.902 131.95 104.208 130.855 103.301 130.215C102.447 129.521 101.459 129.441 100.338 129.975C99.2168 130.455 98.0957 131.816 96.9746 134.059C96.334 135.447 95.8802 137.075 95.6133 138.943C95.3997 140.758 95.293 142.44 95.293 143.988V144.229ZM118.996 152.557C118.889 150.635 118.702 148.072 118.436 144.869C118.222 141.613 117.955 138.249 117.635 134.779C117.368 131.309 117.074 128.026 116.754 124.93C116.434 121.833 116.167 119.431 115.953 117.723C115.953 117.029 116.273 116.575 116.914 116.361C117.555 116.148 118.169 116.041 118.756 116.041C119.503 116.041 120.277 116.255 121.078 116.682C121.932 117.109 122.466 117.696 122.68 118.443C122.68 118.657 122.706 119.057 122.76 119.645C122.813 120.178 122.84 120.739 122.84 121.326C122.893 121.913 122.947 122.501 123 123.088C123.053 123.622 123.08 123.995 123.08 124.209C123.08 124.529 123.08 124.77 123.08 124.93C123.08 125.09 123.08 125.25 123.08 125.41C123.08 125.517 123.107 125.65 123.16 125.811C123.214 125.971 123.294 126.238 123.4 126.611C123.507 126.505 123.614 126.371 123.721 126.211C123.881 126.051 123.988 125.944 124.041 125.891C124.895 124.663 125.723 123.595 126.523 122.688C127.324 121.727 128.152 120.846 129.006 120.045C129.86 119.191 130.794 118.31 131.809 117.402C132.876 116.441 134.104 115.347 135.492 114.119C135.812 113.852 136.053 113.665 136.213 113.559C136.373 113.398 136.507 113.292 136.613 113.238C136.773 113.132 136.934 113.078 137.094 113.078C137.254 113.025 137.467 112.998 137.734 112.998C138.642 112.998 139.549 113.318 140.457 113.959C141.418 114.546 141.898 115.374 141.898 116.441C141.898 116.815 141.765 117.215 141.498 117.643C141.231 118.016 140.911 118.39 140.537 118.764C140.163 119.084 139.763 119.378 139.336 119.645C138.962 119.911 138.615 120.098 138.295 120.205C136.907 121.433 135.439 122.848 133.891 124.449C132.342 125.997 130.901 127.679 129.566 129.494C128.232 131.309 127.137 133.204 126.283 135.18C125.429 137.155 125.002 139.13 125.002 141.105C125.002 142.921 125.135 144.709 125.402 146.471C125.669 148.232 125.803 150.021 125.803 151.836V154.639C125.376 155.066 125.002 155.413 124.682 155.68C124.361 155.947 123.908 156.08 123.32 156.08C122.413 156.08 121.532 155.706 120.678 154.959C119.824 154.158 119.263 153.357 118.996 152.557ZM147.744 152.957C147.21 147.618 146.757 143.054 146.383 139.264C146.009 135.473 145.689 132.297 145.422 129.734C145.155 127.172 144.915 125.143 144.701 123.648C144.541 122.1 144.408 120.952 144.301 120.205C144.194 119.404 144.114 118.87 144.061 118.604C144.007 118.337 143.98 118.176 143.98 118.123V117.803C143.98 117.215 144.221 116.735 144.701 116.361C145.235 115.934 145.769 115.721 146.303 115.721C147.104 115.721 147.958 115.854 148.865 116.121C149.826 116.388 150.467 116.949 150.787 117.803C151.268 120.419 151.588 123.061 151.748 125.73C151.962 128.4 152.122 131.069 152.229 133.738C152.389 136.354 152.576 138.997 152.789 141.666C153.056 144.335 153.51 146.978 154.15 149.594C154.15 149.701 154.177 149.914 154.23 150.234C154.337 150.555 154.417 150.902 154.471 151.275C154.577 151.649 154.658 151.996 154.711 152.316C154.764 152.637 154.791 152.85 154.791 152.957V153.117C154.791 153.171 154.818 153.224 154.871 153.277C154.871 153.918 154.577 154.559 153.99 155.199C153.403 155.84 152.789 156.107 152.148 156C151.988 155.947 151.588 155.867 150.947 155.76C150.36 155.6 149.96 155.466 149.746 155.359C149.586 155.306 149.372 155.199 149.105 155.039C148.839 154.826 148.572 154.612 148.305 154.398C148.091 154.185 147.904 153.945 147.744 153.678C147.584 153.411 147.584 153.171 147.744 152.957ZM143.26 94.5801C143.26 94.2064 143.553 93.8861 144.141 93.6191C144.781 93.2988 145.262 93.1387 145.582 93.1387C146.383 93.1387 147.264 93.3789 148.225 93.8594C149.239 94.2865 149.746 94.9538 149.746 95.8613C149.746 96.7689 149.613 97.3828 149.346 97.7031C149.132 98.0234 148.572 98.1836 147.664 98.1836C146.703 98.1836 145.715 97.8633 144.701 97.2227C143.74 96.582 143.26 95.7012 143.26 94.5801ZM165.521 132.617C164.774 132.617 164.107 132.804 163.52 133.178C162.932 133.551 162.238 133.738 161.438 133.738C161.331 133.738 161.037 133.738 160.557 133.738C160.13 133.685 159.863 133.658 159.756 133.658C159.542 133.391 159.302 133.178 159.035 133.018C158.768 132.857 158.501 132.697 158.234 132.537C157.967 132.324 157.727 132.083 157.514 131.816C157.354 131.549 157.273 131.176 157.273 130.695C157.273 129.895 157.594 129.254 158.234 128.773C158.875 128.24 159.622 127.786 160.477 127.412C161.331 127.038 162.185 126.691 163.039 126.371C163.947 126.051 164.667 125.677 165.201 125.25V121.727C165.201 117.776 165.014 113.826 164.641 109.875C164.267 105.871 164.08 101.921 164.08 98.0234C164.08 96.9557 164.347 96.2617 164.881 95.9414C165.415 95.6211 166.135 95.4609 167.043 95.4609C168.111 95.4609 168.885 95.7812 169.365 96.4219C169.899 97.0091 170.273 97.7565 170.486 98.6641C170.7 99.5182 170.807 100.452 170.807 101.467C170.807 102.428 170.833 103.255 170.887 103.949C170.887 104.643 170.94 105.871 171.047 107.633C171.154 109.395 171.26 111.263 171.367 113.238C171.474 115.214 171.581 117.082 171.688 118.844C171.794 120.605 171.874 121.833 171.928 122.527C172.141 122.474 172.542 122.34 173.129 122.127C173.77 121.86 174.437 121.62 175.131 121.406C175.825 121.139 176.465 120.899 177.053 120.686C177.693 120.472 178.147 120.312 178.414 120.205C179.802 119.618 181.243 118.977 182.738 118.283C184.233 117.536 185.755 117.162 187.303 117.162C188.37 117.162 189.171 117.536 189.705 118.283C190.292 118.977 190.586 119.805 190.586 120.766C190.586 121.46 190.319 121.967 189.785 122.287C189.251 122.607 188.691 122.901 188.104 123.168L173.529 128.613C173.369 128.72 173.209 128.827 173.049 128.934C172.889 128.987 172.729 129.094 172.568 129.254V131.816C172.568 133.685 172.595 135.633 172.648 137.662C172.755 139.637 172.942 141.559 173.209 143.428C173.476 145.029 173.77 146.604 174.09 148.152C174.41 149.701 174.57 151.275 174.57 152.877C174.57 153.357 174.41 153.998 174.09 154.799C173.77 155.6 173.262 156 172.568 156C171.127 156 169.952 155.573 169.045 154.719C168.137 153.865 167.63 152.717 167.523 151.275C167.257 148.499 166.963 145.456 166.643 142.146C166.376 138.837 166.109 135.66 165.842 132.617H165.521ZM226.621 133.258C226.514 134.219 226.381 134.966 226.221 135.5C226.114 136.034 225.9 136.514 225.58 136.941C225.26 137.368 224.806 137.822 224.219 138.303C223.632 138.73 222.831 139.37 221.816 140.225C220.802 141.025 219.548 142.093 218.053 143.428C216.558 144.762 214.743 146.497 212.607 148.633C211.753 149.434 210.872 150.261 209.965 151.115C209.057 151.969 208.096 152.743 207.082 153.438C206.121 154.078 205.107 154.612 204.039 155.039C202.971 155.466 201.85 155.68 200.676 155.68C198.38 155.68 196.699 154.906 195.631 153.357C194.563 151.809 194.029 150.021 194.029 147.992C194.029 146.658 194.056 145.536 194.109 144.629C194.216 143.721 194.43 142.547 194.75 141.105C194.163 140.572 193.656 140.118 193.229 139.744C192.801 139.317 192.588 138.757 192.588 138.062C192.588 137.422 192.721 136.995 192.988 136.781C193.309 136.568 193.656 136.434 194.029 136.381C194.456 136.274 194.857 136.167 195.23 136.061C195.604 135.954 195.871 135.74 196.031 135.42C196.138 135.1 196.325 134.512 196.592 133.658C196.912 132.804 197.232 131.923 197.553 131.016C197.873 130.055 198.167 129.174 198.434 128.373C198.754 127.519 198.967 126.932 199.074 126.611C199.448 125.704 199.848 124.796 200.275 123.889C200.756 122.928 201.29 122.074 201.877 121.326C202.518 120.579 203.238 119.965 204.039 119.484C204.893 119.004 205.881 118.764 207.002 118.764C207.643 118.764 208.417 119.057 209.324 119.645C210.285 120.232 211.193 120.952 212.047 121.807C212.901 122.607 213.622 123.462 214.209 124.369C214.796 125.277 215.09 126.051 215.09 126.691C215.09 127.492 214.903 128.24 214.529 128.934C214.156 129.574 213.675 130.188 213.088 130.775C212.554 131.309 211.967 131.816 211.326 132.297C210.686 132.777 210.098 133.231 209.564 133.658C209.511 133.658 209.404 133.712 209.244 133.818C209.084 133.925 208.951 134.005 208.844 134.059C208.79 134.112 208.657 134.245 208.443 134.459C208.283 134.619 208.096 134.806 207.883 135.02C207.669 135.233 207.456 135.447 207.242 135.66C207.082 135.874 206.975 136.007 206.922 136.061C206.762 136.221 206.441 136.488 205.961 136.861C205.534 137.182 205.053 137.555 204.52 137.982C203.986 138.356 203.479 138.73 202.998 139.104C202.571 139.424 202.277 139.637 202.117 139.744L201.797 140.385C201.69 140.598 201.583 141.079 201.477 141.826C201.423 142.52 201.343 143.321 201.236 144.229C201.13 145.136 201.023 146.07 200.916 147.031C200.863 147.939 200.836 148.686 200.836 149.273C200.836 149.327 200.863 149.38 200.916 149.434C201.023 149.54 201.103 149.594 201.156 149.594C201.583 149.594 201.984 149.407 202.357 149.033C202.731 148.66 203.132 148.393 203.559 148.232L216.371 136.381L219.654 131.336C219.921 130.962 220.428 130.562 221.176 130.135C221.977 129.654 222.777 129.414 223.578 129.414C224.379 129.361 225.073 129.601 225.66 130.135C226.301 130.669 226.621 131.71 226.621 133.258ZM209.004 127.012C209.271 126.798 209.378 126.478 209.324 126.051C209.271 125.624 209.111 125.25 208.844 124.93C208.63 124.609 208.337 124.423 207.963 124.369C207.589 124.262 207.242 124.449 206.922 124.93C206.762 125.143 206.468 125.57 206.041 126.211C205.667 126.852 205.267 127.519 204.84 128.213C204.466 128.854 204.146 129.414 203.879 129.895C203.612 130.375 203.559 130.562 203.719 130.455L209.004 127.012Z" fill="#009387"/>
</svg>